<svg xmlns="http://www.w3.org/2000/svg" width="286.705" height="60.525" viewBox="0 0 286.705 60.525">
  <g id="Group_35118" data-name="Group 35118" transform="translate(588.376 -1947.953)">
    <rect id="Rectangle_3773" data-name="Rectangle 3773" width="13.03" height="13.03" transform="translate(-582.405 1957.234)" fill="#c8e3a5"/>
    <rect id="Rectangle_3774" data-name="Rectangle 3774" width="13.03" height="14.957" transform="translate(-582.405 1982.72)" fill="#c8e3a5"/>
    <rect id="Rectangle_3775" data-name="Rectangle 3775" width="13.03" height="25.101" transform="translate(-557.262 1982.72)" fill="#c8e3a5"/>
    <g id="_7MhUS5" data-name="7MhUS5" transform="translate(-588.376 1947.953)">
      <g id="Group_35117" data-name="Group 35117" transform="translate(0 0)">
        <path id="Path_13167" data-name="Path 13167" d="M46.138,1970.844c1.62,0,3.171-.013,4.722.021.152,0,.346.273.431.46a1.511,1.511,0,0,1,.018.576c0,4.12.008,8.24-.009,12.36,0,.516.126.711.682.71q17.213-.022,34.427-.025c.281,0,.739-.146.8-.333a3.033,3.033,0,0,0,.033-1.242c-.009-.095-.251-.2-.4-.239a2.661,2.661,0,0,0-.58-.013H59.053c0-1.2-.055-2.358.013-3.507a11.723,11.723,0,0,1,1.278-4.9,4.794,4.794,0,0,1,3.1-2.594c2.945-.8,5.841-1.789,8.757-2.7.184-.057.37-.108.625-.181l1.238,3.868c-.431.155-.827.3-1.226.439q-3.109,1.081-6.219,2.161a1.371,1.371,0,0,0-.628.3,1.131,1.131,0,0,0-.256.785c.034.181.357.362.587.437a2.557,2.557,0,0,0,.771.029H89.868c1.539,0,2.224.61,2.279,2.159.059,1.659.045,3.321.046,4.981,0,.375.043.6.514.6,2.7-.018,5.393-.009,8.089-.012a3.009,3.009,0,0,0,.371-.052c.015-.261.042-.513.043-.765,0-1.682.016-3.365-.006-5.047-.006-.469.119-.644.616-.634,1.486.03,2.974.011,4.537.011.013.265.032.493.033.72,0,1.532,0,3.063,0,4.595,0,.859.272,1.178,1,1.185.68.006.949-.355.943-1.234-.009-1.531.013-3.063-.023-4.594-.013-.549.177-.695.7-.683,1.464.032,2.93.011,4.473.011.016.266.04.492.04.719,0,1.467,0,2.934,0,4.4,0,.938.332,1.331,1.148,1.365a1.315,1.315,0,0,0,1.327-1.376c.027-1.315.008-2.632.009-3.947,0-.344,0-.689,0-1.1H120.6c.011.2.034.426.034.653q0,4.724,0,9.448a4.422,4.422,0,0,1-.042.9c-.244,1.151-.479,1.808-1.989,1.743-1.7-.074-3.407-.015-5.111-.018a2.173,2.173,0,0,1-2.508-1.991c-.175.343-.311.625-.461.9a1.894,1.894,0,0,1-1.874,1.107c-1.508-.052-3.02.006-4.529-.027a6.043,6.043,0,0,1-1.518-.255,2.077,2.077,0,0,1-1.538-1.783c-.812,1.655-2.245,1.968-3.775,2.038-1.012.047-2.027.013-3.041.012a2.57,2.57,0,0,1-2.808-1.756,2.917,2.917,0,0,1-2.935,1.739c-1.1.054-2.2.017-3.3.017H49.164a2.564,2.564,0,0,1-2.772-2.021,5.7,5.7,0,0,1-.273-1.584c-.023-5.457-.019-10.915-.021-16.372C46.1,1971.188,46.119,1971.063,46.138,1970.844Z" transform="translate(36.033 -1966.482)" fill="#015025"/>
        <path id="Path_13168" data-name="Path 13168" d="M1082.372,2021.552h5.41v6.66h4.975v-6.658h5.879v6.392h2.269c.012-.242.033-.472.033-.7q0-1.941,0-3.883c0-1.643.452-2.1,2.119-2.1q8.93,0,17.861,0c.453,0,.906-.011,1.359,0a1.58,1.58,0,0,1,1.756,1.706c0,1.444-.034,2.889-.086,4.333-.031.839-.059.84.753.841h12.162c.013-.274.034-.5.034-.729,0-2.416,0-4.832-.026-7.247a1.151,1.151,0,0,1,.784-1.2,3.884,3.884,0,0,1,1.251-.264c2.782-.033,5.565-.037,8.347-.04a1.2,1.2,0,0,1,1.227,1.172,8.382,8.382,0,0,1,.067,1.226q.007,5.274,0,10.548c0,2.008-.831,2.839-2.82,2.84-6.126,0-12.253.016-18.378-.012a4.574,4.574,0,0,1-3.452-1.588c-.818,1.311-2.137,1.412-3.509,1.412q-16.081-.007-32.162,0c-.917,0-.918,0-.919.908,0,1.294.007,2.589,0,3.883-.012,1.822-.834,2.751-2.634,2.816-1.853.066-3.709.023-5.564.026a1.066,1.066,0,0,1-1.1-.836,19.632,19.632,0,0,1-.482-3.229c-.032-.661.545-1.053,1.166-1.22a5.347,5.347,0,0,1,1.212-.162c.795-.024,1.591-.007,2.471-.007Zm23.389,6.47c.217.013.448.039.68.04q5.654,0,11.308,0c.129,0,.295.046.381-.016.233-.169.54-.349.621-.591.127-.379-.13-.668-.53-.728a6.191,6.191,0,0,0-.965-.038q-5.331.036-10.661.078c-.994.007-1,.008-.908,1.018A1.415,1.415,0,0,0,1105.761,2028.022Zm37.831-.049c0-1.286.025-2.49-.011-3.692a1.028,1.028,0,0,0-2.031-.106c-.065,1.258-.02,2.521-.02,3.8Z" transform="translate(-861.875 -2009.496)" fill="#015025"/>
        <path id="Path_13169" data-name="Path 13169" d="M-563.293,2170.306c-1.885,1.907-3.716,3.7-5.473,5.566a2.544,2.544,0,0,1-2.092.833c-3.363-.044-6.728-.018-10.092-.018h-.833c-.019.285-.047.514-.047.743,0,4.162.017,8.324-.006,12.486,0,.616.209.753.781.75q5.434-.033,10.868.006a2.026,2.026,0,0,1,1.107.375c1.808,1.325,3.586,2.691,5.373,4.046.131.1.252.213.451.383a2.827,2.827,0,0,1-.38.063q-12.032-.031-24.065-.056c-.56,0-.677-.2-.676-.709q.04-11.936.052-23.872c0-.187.027-.375.043-.6Z" transform="translate(588.376 -2141.523)" fill="#015025"/>
        <path id="Path_13170" data-name="Path 13170" d="M-424.906,2169.447c1.638,0,3.277-.01,4.915-.007q9.707.019,19.413.045h.707c-.214.25-.336.411-.478.554-1.8,1.828-3.613,3.646-5.4,5.485a1.432,1.432,0,0,1-1.132.472c-3.581-.018-7.162,0-10.742-.022-.6,0-.787.184-.755.772.045.839.013,1.682.011,2.523-.012,6.881-.033,13.761-.025,20.642,0,.619-.166.8-.793.8-3.3-.029-6.6-.014-9.9-.014h-.766c.171-.241.266-.4.381-.532,1.373-1.635,2.765-3.254,4.108-4.914a1.979,1.979,0,0,0,.414-1.151q.038-11.971.024-23.943c0-.237.015-.474.023-.71Z" transform="translate(450.375 -2140.768)" fill="#015025"/>
        <path id="Path_13171" data-name="Path 13171" d="M864.9,2003.083h5.207v4.791c.291.019.5.045.709.045q8.217,0,16.434,0c.827,0,1.086-.235,1.087-.922,0-.515-.239-.739-.753-.735q-1.909.016-3.817,0c-1.652-.015-2.264-.629-2.268-2.274q-.008-3.365,0-6.729a2.162,2.162,0,0,1,2.412-2.384q3.624-.01,7.247,0a1.863,1.863,0,0,1,2.128,2.147c0,4.163.022,8.325-.017,12.487a11.447,11.447,0,0,1-.38,2.735,1.643,1.643,0,0,1-1.88,1.377c-7.786-.034-15.572-.011-23.357-.031a5.869,5.869,0,0,1-1.825-.315,1.466,1.466,0,0,1-1-1.511q.01-4.076.023-8.152C864.857,2003.447,864.886,2003.28,864.9,2003.083Zm23.7-.987c0-.966.054-1.906-.021-2.835-.043-.531-.561-.581-1.01-.577-.465,0-.933.139-.97.651-.066.908-.019,1.825-.019,2.76Z" transform="translate(-676.718 -1988.796)" fill="#015025"/>
        <path id="Path_13172" data-name="Path 13172" d="M-587.934,1998.669v-25.135h25.141c-.209.233-.331.384-.468.521-1.815,1.816-3.62,3.641-5.46,5.43a1.593,1.593,0,0,1-1,.406q-5.5.043-11,0c-.568,0-.731.149-.727.722.025,3.861.006,7.723.021,11.585a1.28,1.28,0,0,1-.455,1.063c-1.731,1.558-3.436,3.146-5.157,4.717C-587.293,1998.207-587.575,1998.393-587.934,1998.669Z" transform="translate(587.991 -1970.222)" fill="#015025"/>
        <path id="Path_13173" data-name="Path 13173" d="M224.37,2249.032c.147.647.1,1.466.471,1.792.4.347,1.206.228,1.882.318v2.94c-1.523,0-3.008.044-4.488-.017-.827-.034-1.2-.53-1.213-1.388-.015-1.224,0-2.449,0-3.667-2.549-.184-4.6-2.13-4.633-5.764-.026-2.975.049-5.951.1-8.926a8.047,8.047,0,0,1,.236-1.4,3.121,3.121,0,0,1,2.461-2.538,8.1,8.1,0,0,1,1.782-.263c1.25-.039,2.5-.029,3.753-.008,2.528.042,3.944,1.253,4.123,3.768.16,2.253.121,4.522.135,6.784a32.963,32.963,0,0,1-.1,3.746C228.592,2247.067,227.179,2248.526,224.37,2249.032Zm-.637-9.792c0-1.357,0-2.715,0-4.072a3.038,3.038,0,0,0-.1-.761.818.818,0,0,0-.915-.639.881.881,0,0,0-.966.678,4.1,4.1,0,0,0-.115.956q-.013,3.813,0,7.627a4.983,4.983,0,0,0,.068.834c.127.737.44,1.05,1.005,1.04.54-.01.9-.39,1-1.074a4.6,4.6,0,0,0,.027-.645Q223.736,2241.211,223.734,2239.24Z" transform="translate(-112.206 -2193.571)" fill="#015025"/>
        <path id="Path_13174" data-name="Path 13174" d="M1214.344,2239.6c2.7.809,2.926,1.113,2.922,3.814,0,1.035.018,2.071-.035,3.1a2.471,2.471,0,0,1-2.547,2.52c-3.061.043-6.122.025-9.184.041-.356,0-.555-.07-.554-.5q.016-9.023.012-18.045a1.848,1.848,0,0,1,.058-.3c.235-.011.467-.032.7-.033q3.945,0,7.891,0a9.246,9.246,0,0,1,1.288.1,2.5,2.5,0,0,1,2.27,2.36c.072,1.354.035,2.715-.008,4.072a2.665,2.665,0,0,1-1.8,2.458C1215.07,2239.316,1214.774,2239.425,1214.344,2239.6Zm-4.213,5.53c.48,0,.925.021,1.366-.006a.6.6,0,0,0,.615-.675c0-.644.009-1.288,0-1.931a.808.808,0,0,0-.719-.856,10.742,10.742,0,0,0-1.265-.067Zm-.019-7.624c.677.15,1.326.4,1.816-.266a3.772,3.772,0,0,0-.022-2.628c-.508-.611-1.161-.321-1.794-.347Z" transform="translate(-972.805 -2193.66)" fill="#015025"/>
        <path id="Path_13175" data-name="Path 13175" d="M-112.056,2230.233c.243-.012.475-.033.706-.033,2.63,0,5.26-.006,7.89,0a9.237,9.237,0,0,1,1.287.1,2.523,2.523,0,0,1,2.269,2.5c.037,1.228,0,2.457.005,3.686a2.84,2.84,0,0,1-2.054,2.819c-.228.089-.46.167-.829.3.58.165,1.017.251,1.423.412a2.213,2.213,0,0,1,1.541,2.167c.012,1.4.029,2.8-.01,4.2a2.5,2.5,0,0,1-2.619,2.654c-3.039.044-6.079.021-9.118.04-.421,0-.558-.145-.557-.563q.015-8.925.009-17.85A3.661,3.661,0,0,1-112.056,2230.233Zm5.079,11.346c0,.913,0,1.726,0,2.539,0,1.129,0,1.129,1.142,1.041l.128-.01a.71.71,0,0,0,.761-.822c-.02-.6,0-1.2-.007-1.8a.83.83,0,0,0-.772-.877C-106.1,2241.59-106.485,2241.6-106.977,2241.579Zm.023-4.081c.649.156,1.266.391,1.772-.2a3.881,3.881,0,0,0,.065-2.627c-.31-.469-.925-.579-1.837-.316Z" transform="translate(173.771 -2193.661)" fill="#015025"/>
        <path id="Path_13176" data-name="Path 13176" d="M661,2006.239H645.77v-6.145c.791,0,1.543-.034,2.289.011.563.034.741-.138.736-.719-.028-3.084-.013-6.168-.013-9.252v-.737h4.625c.012.26.034.511.035.761,0,3.062.016,6.125-.011,9.187-.005.592.16.819.762.758a6.788,6.788,0,0,1,1.421,0c.653.073.789-.207.78-.807-.032-2.2-.013-4.4-.013-6.6,0-1.855.018-3.71-.01-5.564-.008-.546.182-.7.708-.69,1.291.03,2.582.01,3.925.01Z" transform="translate(-486.012 -1981.461)" fill="#015025"/>
        <path id="Path_13177" data-name="Path 13177" d="M1458.243,2248.943c-1.633,0-3.181.013-4.728-.023-.127,0-.345-.335-.352-.52-.035-1.013-.031-2.028-.011-3.041.008-.4-.1-.589-.54-.58-1.951.042-1.551-.246-1.592,1.537q-.025,1.068,0,2.136c.009.357-.119.5-.483.5-1.359-.011-2.718-.02-4.077,0-.553.01-.493-.337-.493-.685q0-4.692,0-9.384c0-2.157-.007-4.314.012-6.471a2.086,2.086,0,0,1,2.208-2.316q3.913-.082,7.83,0a2.07,2.07,0,0,1,2.224,2.358q0,7.863,0,15.727Zm-5.1-8.176c0-1.395,0-2.77,0-4.146,0-.581.008-1.166-.044-1.743a.883.883,0,0,0-.894-.854.93.93,0,0,0-1.077.718,3.818,3.818,0,0,0-.108.893c-.012,1.185-.005,2.37-.005,3.554C1451.017,2241.059,1451.1,2241.128,1453.146,2240.767Z" transform="translate(-1182.625 -2193.539)" fill="#015025"/>
        <path id="Path_13178" data-name="Path 13178" d="M1107.1,2249.018h-5.1V2244.9c-.645,0-1.222-.03-1.791.023-.127.012-.319.314-.324.487-.031,1.012-.032,2.027-.009,3.04.01.427-.094.624-.568.615-1.315-.025-2.631-.021-3.946,0-.422.006-.558-.151-.557-.567.016-5.369.009-10.738.031-16.107a2.012,2.012,0,0,1,1.944-2.16,4.105,4.105,0,0,1,.579-.043c2.394,0,4.787-.01,7.181,0,1.787.008,2.557.791,2.557,2.566q0,7.7,0,15.4Zm-5.127-8.132c0-1.959.017-3.9-.011-5.831a.888.888,0,0,0-.9-.918.936.936,0,0,0-1.095.777,3.817,3.817,0,0,0-.086.765c-.009,1.207,0,2.413,0,3.619C1099.876,2241.176,1099.948,2241.234,1101.976,2240.885Z" transform="translate(-876.927 -2193.651)" fill="#015025"/>
        <path id="Path_13179" data-name="Path 13179" d="M589.769,2239.5c0-2.891.014-5.781-.012-8.672,0-.575.13-.781.749-.773,2.653.035,5.308.074,7.959,0s3.544,1.213,3.575,3.574c.048,3.6.022,7.2.009,10.807a23.916,23.916,0,0,1-.126,2.451,1.95,1.95,0,0,1-2.042,2c-3.213.057-6.427.038-9.641.062-.5,0-.473-.31-.473-.644Q589.77,2243.9,589.769,2239.5Zm5.055-.02c0,1.572-.009,3.145.012,4.716,0,.19.126.5.263.548a1.269,1.269,0,0,0,1.823-1.291c.016-2.627.011-5.254,0-7.881a2.155,2.155,0,0,0-.169-.812,1.405,1.405,0,0,0-1.63-.6c-.534.15-.279.611-.285.925C594.807,2236.553,594.823,2238.018,594.823,2239.482Z" transform="translate(-437.25 -2193.535)" fill="#015025"/>
        <path id="Path_13180" data-name="Path 13180" d="M9.2,2249.037c-1.626,0-3.154.013-4.681-.023-.135,0-.368-.327-.375-.509-.038-1.012-.036-2.026-.014-3.039.009-.446-.144-.606-.6-.595-1.868.048-1.516-.244-1.551,1.517-.014.711-.012,1.423,0,2.135.006.334-.075.526-.462.523-1.38-.012-2.76-.015-4.14,0-.457.006-.453-.266-.453-.591.005-1.811,0-3.623,0-5.434,0-3.472.046-6.945-.016-10.415a2.278,2.278,0,0,1,2.458-2.437c2.48,0,4.96-.017,7.439.008a2.138,2.138,0,0,1,2.389,2.46q0,7.763,0,15.526ZM4.124,2237.88H4.077c0-.948.025-1.9-.009-2.843a.892.892,0,0,0-.964-.92.932.932,0,0,0-1.041.846,5.548,5.548,0,0,0-.078.833c-.008,1.207-.022,2.415,0,3.622.033,1.791-.359,1.5,1.582,1.543.418.009.575-.136.564-.558C4.109,2239.562,4.124,2238.721,4.124,2237.88Z" transform="translate(78.85 -2193.634)" fill="#015025"/>
        <path id="Path_13181" data-name="Path 13181" d="M991.169,2249v-7.255h-2.155c-.015.237-.045.486-.046.735,0,1.941-.018,3.883.007,5.824.007.526-.144.722-.69.708-1.272-.034-2.545-.018-3.817-.007-.379,0-.6-.064-.595-.525q.019-8.995.013-17.989a3.062,3.062,0,0,1,.057-.363h1.646c.906,0,1.813.025,2.717-.01.5-.02.676.141.67.656-.025,1.941.01,3.883-.022,5.823-.009.578.182.735.742.726,1.461-.023,1.461,0,1.461-1.469v-5.726h2.479c.69,0,1.381.024,2.07-.007.463-.021.582.157.579.6-.018,2.653-.009,5.306-.009,7.959,0,3.214-.013,6.428.012,9.641,0,.545-.159.7-.692.69C994.154,2248.982,992.711,2249,991.169,2249Z" transform="translate(-780.349 -2193.594)" fill="#015025"/>
        <path id="Path_13182" data-name="Path 13182" d="M109.154,2248.933h-5.125v-.793q0-6.244,0-12.487c0-.927.051-1.859-.025-2.781-.074-.891-.283-1.772-.444-2.728.183-.014.386-.042.59-.042,1.316,0,2.632.03,3.946-.017.555-.02.787.188.854.7.064.486.144.969.239,1.6.138-.28.21-.425.281-.57a2.756,2.756,0,0,1,2.78-1.719c.624.025,1.252-.021,1.875.018a2.071,2.071,0,0,1,2.132,1.865,7.075,7.075,0,0,1,.133,1.284q.015,7.6.007,15.2c0,.127-.013.253-.024.443h-5.1v-.77q0-6.146,0-12.293c0-.51-.032-1-.589-1.254a.951.951,0,0,0-1.423.631,3.476,3.476,0,0,0-.1.956q-.01,5.952,0,11.9Z" transform="translate(-13.99 -2193.563)" fill="#015025"/>
        <path id="Path_13183" data-name="Path 13183" d="M334.609,2230.169h5.075v.811q0,8.024,0,16.048c0,1.5-.349,1.921-1.835,1.94q-4.367.055-8.734,0c-1.428-.019-1.826-.485-1.827-1.909,0-5.414.005-10.827-.012-16.241,0-.524.127-.721.68-.705,1.271.037,2.545.01,3.817.014.189,0,.378.027.631.045v.8c0,4.313.009,8.628-.01,12.941a1.016,1.016,0,0,0,.887,1.142.914.914,0,0,0,1.21-.744,6.089,6.089,0,0,0,.112-1.219q.012-6.05,0-12.1Z" transform="translate(-208.747 -2193.584)" fill="#015025"/>
        <path id="Path_13184" data-name="Path 13184" d="M-237.91,2171.254q.824.846,1.649,1.693c1.387,1.417,2.786,2.824,4.154,4.259a1.341,1.341,0,0,1,.359.832q.028,11.837.014,23.673c0,.148-.013.3-.023.5h-12.53c.166-.18.281-.323.414-.447,1.774-1.669,3.542-3.344,5.332-5a1.454,1.454,0,0,0,.5-1.182q-.037-11.707-.044-23.414,0-.416,0-.831Z" transform="translate(288.829 -2142.348)" fill="#015025"/>
        <path id="Path_13185" data-name="Path 13185" d="M-100.647,2040.836h5.168c0,.764,0,1.49,0,2.217,0,1.229-.014,2.458.016,3.686,0,.185.218.521.34.523,1.85.034,3.7.023,5.643.023V2040.8c1.508,0,2.924-.015,4.339.028.118,0,.319.4.321.612.023,2.522.016,5.045.014,7.568,0,.646.023,1.3-.02,1.939a2.567,2.567,0,0,1-2.706,2.622c-3.772.039-7.546.017-11.319.016a1.38,1.38,0,0,1-1.338-1.042,8.46,8.46,0,0,1-.523-2.441c-.055-2.974-.011-5.95,0-8.925A2.078,2.078,0,0,1-100.647,2040.836Z" transform="translate(163.862 -2028.782)" fill="#015025"/>
        <path id="Path_13186" data-name="Path 13186" d="M448.435,2245.512c0,1.329.014,2.536-.018,3.742a.582.582,0,0,1-.4.4c-2.372.008-4.746.04-7.115-.056a2.748,2.748,0,0,1-2.528-2.607,12.462,12.462,0,0,1-.116-1.61c-.01-3.624-.017-7.247.007-10.871a7.524,7.524,0,0,1,.263-1.845,2.11,2.11,0,0,1,1.957-1.725c2.644-.084,5.293-.029,7.994-.029v3.97h-2.031c-.841,0-1.683-.022-2.523.019-.182.008-.5.234-.505.371-.045.943-.024,1.888-.024,2.936h1.989c.841,0,1.683.014,2.524,0,.415-.009.576.147.568.567-.019.992-.026,1.985,0,2.977.014.493-.13.685-.654.67-1.25-.035-2.5.012-3.753-.021-.547-.015-.723.181-.69.709a14.237,14.237,0,0,1,0,1.746c-.03.5.132.687.656.671,1.207-.034,2.415-.011,3.623-.01Z" transform="translate(-305.352 -2194.269)" fill="#015025"/>
        <path id="Path_13187" data-name="Path 13187" d="M710.086,2242.015H705.13v3.105h4.988c0,1.341.011,2.586-.019,3.831,0,.118-.264.33-.406.331-2.371,0-4.745.042-7.112-.056-1.554-.064-2.587-1.356-2.621-3.149-.045-2.392-.022-4.786-.026-7.179,0-1.66-.025-3.321.012-4.98a7.06,7.06,0,0,1,.281-1.772,2.061,2.061,0,0,1,1.924-1.589c2.6-.1,5.211-.075,7.817-.1.037,0,.075.038.143.074v3.942h-4.984v3.352h4.959Z" transform="translate(-533.157 -2193.889)" fill="#015025"/>
        <path id="Path_13188" data-name="Path 13188" d="M-391.621,1999.143q0-12.354.013-24.709a3.087,3.087,0,0,1,.059-.429l.235-.192a7,7,0,0,0,.678.942q2.537,2.54,5.111,5.043a1.282,1.282,0,0,1,.44,1.008q-.026,6.339,0,12.679a1.117,1.117,0,0,1-.527,1.008q-2.809,2.073-5.59,4.184a3.248,3.248,0,0,0-.422.468Z" transform="translate(417.091 -1970.466)" fill="#015025"/>
        <path id="Path_13189" data-name="Path 13189" d="M1547.405,2234.638v-4.025h10.233v4.025c-.644,0-1.283.037-1.916-.011-.584-.044-.729.18-.727.737.019,4.4.011,8.8.01,13.195,0,.873,0,.874-.886.875h-4.168c0-.315,0-.565,0-.814,0-4.4-.012-8.8.013-13.195,0-.617-.155-.855-.79-.8C1548.6,2234.679,1548.024,2234.638,1547.405,2234.638Z" transform="translate(-1270.933 -2194.023)" fill="#015025"/>
        <path id="Path_13190" data-name="Path 13190" d="M1360.379,2234.2v-4.027c.2-.017.408-.049.613-.049,2.976,0,5.951.014,8.927-.015.583-.006.74.177.72.737-.041,1.093-.012,2.188-.012,3.353-.705,0-1.328.036-1.944-.01-.577-.043-.731.167-.728.732.021,4.377.012,8.754.011,13.131,0,.942,0,.942-.939.943-1.121,0-2.243-.028-3.363.012-.584.021-.77-.152-.766-.757.025-4.377.014-8.754.013-13.131,0-.918,0-.918-.908-.919Z" transform="translate(-1108.117 -2193.582)" fill="#015025"/>
        <path id="Path_13191" data-name="Path 13191" d="M855.345,2230.668a9.9,9.9,0,0,0-.582,4.4c0,3.105.013,6.211-.011,9.316,0,.543.171.751.695.694.914-.1,1.828-.2,2.821-.3-.14.894-.288,1.839-.437,2.784-.01.063-.034.125-.047.188-.109.546-.039,1.318-.371,1.58-.37.292-1.105.143-1.682.147-1.747.012-3.494-.023-5.24.018-.641.015-.844-.148-.84-.821q.044-7.57,0-15.139c0-.937-.16-1.873-.251-2.868Z" transform="translate(-663.286 -2194.071)" fill="#015025"/>
        <path id="Path_13192" data-name="Path 13192" d="M1314.371,2249v-18.859h1.66c.948,0,1.9.02,2.845-.008.46-.013.584.156.583.6-.012,5.884-.005,11.768-.02,17.652,0,.205-.173.586-.273.589C1317.581,2249.015,1315.994,2249,1314.371,2249Z" transform="translate(-1068.065 -2193.608)" fill="#015025"/>
        <path id="Path_13193" data-name="Path 13193" d="M796.43,2006.191h-4.572c-.013-.262-.034-.492-.034-.723,0-6.081.009-12.162-.017-18.243,0-.657.172-.856.828-.829,1.245.05,2.495.015,3.795.015Z" transform="translate(-613.145 -1981.418)" fill="#015025"/>
        <path id="Path_13194" data-name="Path 13194" d="M923.761,2230.142c-1.3,2.177-2.51,4.208-3.738,6.227a.721.721,0,0,1-.5.308c-.923.03-1.846.014-2.835.014a4.559,4.559,0,0,1,.128-.512c.711-1.843,1.436-3.68,2.135-5.527a.68.68,0,0,1,.752-.52C921.01,2230.158,922.316,2230.142,923.761,2230.142Z" transform="translate(-721.862 -2193.604)" fill="#015025"/>
        <path id="Path_13195" data-name="Path 13195" d="M1026.641,1950.21a2.191,2.191,0,0,1-2.225,2.255,2.217,2.217,0,0,1-2.281-2.272,2.253,2.253,0,0,1,4.506.017Z" transform="translate(-813.658 -1947.953)" fill="#015025"/>
        <path id="Path_13196" data-name="Path 13196" d="M-49.374,1981.289a2.2,2.2,0,0,1-2.18,2.24,2.254,2.254,0,0,1-2.219-2.223A2.254,2.254,0,0,1-51.6,1979.1,2.2,2.2,0,0,1-49.374,1981.289Z" transform="translate(122.976 -1975.066)" fill="#015025"/>
      </g>
    </g>
  </g>
</svg>
